<svg version="1.1" xmlns="http://www.w3.org/2000/svg" viewBox="0 0 516.4057745510644 279.58649604115465" width="516.4057745510644" height="279.58649604115465">
  <!-- svg-source:excalidraw -->
  
  <defs>
    <style class="style-fonts">
      
    </style>
    
  </defs>
  <rect x="0" y="0" width="516.4057745510644" height="279.58649604115465" fill="#ffffff"></rect><g stroke-linecap="round" transform="translate(350.4057571124483 113.58647860253859) rotate(0 78.00000871930803 78.00000871930803)"><path d="M156 78 C156 80.72, 155.86 83.45, 155.57 86.15 C155.29 88.86, 154.86 91.56, 154.3 94.22 C153.73 96.88, 153.02 99.52, 152.18 102.1 C151.34 104.69, 150.36 107.24, 149.26 109.73 C148.15 112.21, 146.91 114.65, 145.55 117 C144.19 119.35, 142.7 121.65, 141.1 123.85 C139.51 126.05, 137.78 128.17, 135.97 130.19 C134.15 132.21, 132.21 134.15, 130.19 135.97 C128.17 137.78, 126.05 139.51, 123.85 141.1 C121.65 142.7, 119.35 144.19, 117 145.55 C114.65 146.91, 112.21 148.15, 109.73 149.26 C107.24 150.36, 104.69 151.34, 102.1 152.18 C99.52 153.02, 96.88 153.73, 94.22 154.3 C91.56 154.86, 88.86 155.29, 86.15 155.57 C83.45 155.86, 80.72 156, 78 156 C75.28 156, 72.55 155.86, 69.85 155.57 C67.14 155.29, 64.44 154.86, 61.78 154.3 C59.12 153.73, 56.48 153.02, 53.9 152.18 C51.31 151.34, 48.76 150.36, 46.27 149.26 C43.79 148.15, 41.35 146.91, 39 145.55 C36.65 144.19, 34.35 142.7, 32.15 141.1 C29.95 139.51, 27.83 137.78, 25.81 135.97 C23.79 134.15, 21.85 132.21, 20.03 130.19 C18.22 128.17, 16.49 126.05, 14.9 123.85 C13.3 121.65, 11.81 119.35, 10.45 117 C9.09 114.65, 7.85 112.21, 6.74 109.73 C5.64 107.24, 4.66 104.69, 3.82 102.1 C2.98 99.52, 2.27 96.88, 1.7 94.22 C1.14 91.56, 0.71 88.86, 0.43 86.15 C0.14 83.45, 0 80.72, 0 78 C0 75.28, 0.14 72.55, 0.43 69.85 C0.71 67.14, 1.14 64.44, 1.7 61.78 C2.27 59.12, 2.98 56.48, 3.82 53.9 C4.66 51.31, 5.64 48.76, 6.74 46.27 C7.85 43.79, 9.09 41.35, 10.45 39 C11.81 36.65, 13.3 34.35, 14.9 32.15 C16.49 29.95, 18.22 27.83, 20.03 25.81 C21.85 23.79, 23.79 21.85, 25.81 20.03 C27.83 18.22, 29.95 16.49, 32.15 14.9 C34.35 13.3, 36.65 11.81, 39 10.45 C41.35 9.09, 43.79 7.85, 46.27 6.74 C48.76 5.64, 51.31 4.66, 53.9 3.82 C56.48 2.98, 59.12 2.27, 61.78 1.7 C64.44 1.14, 67.14 0.71, 69.85 0.43 C72.55 0.14, 75.28 0, 78 0 C80.72 0, 83.45 0.14, 86.15 0.43 C88.86 0.71, 91.56 1.14, 94.22 1.7 C96.88 2.27, 99.52 2.98, 102.1 3.82 C104.69 4.66, 107.24 5.64, 109.73 6.74 C112.21 7.85, 114.65 9.09, 117 10.45 C119.35 11.81, 121.65 13.3, 123.85 14.9 C126.05 16.49, 128.17 18.22, 130.19 20.03 C132.21 21.85, 134.15 23.79, 135.97 25.81 C137.78 27.83, 139.51 29.95, 141.1 32.15 C142.7 34.35, 144.19 36.65, 145.55 39 C146.91 41.35, 148.15 43.79, 149.26 46.27 C150.36 48.76, 151.34 51.31, 152.18 53.9 C153.02 56.48, 153.73 59.12, 154.3 61.78 C154.86 64.44, 155.29 67.14, 155.57 69.85 C155.86 72.55, 155.93 76.64, 156 78 C156.07 79.36, 156.07 76.64, 156 78" stroke="none" stroke-width="0" fill="#ffc4fa"></path><path d="M156 78 C156 80.72, 155.86 83.45, 155.57 86.15 C155.29 88.86, 154.86 91.56, 154.3 94.22 C153.73 96.88, 153.02 99.52, 152.18 102.1 C151.34 104.69, 150.36 107.24, 149.26 109.73 C148.15 112.21, 146.91 114.65, 145.55 117 C144.19 119.35, 142.7 121.65, 141.1 123.85 C139.51 126.05, 137.78 128.17, 135.97 130.19 C134.15 132.21, 132.21 134.15, 130.19 135.97 C128.17 137.78, 126.05 139.51, 123.85 141.1 C121.65 142.7, 119.35 144.19, 117 145.55 C114.65 146.91, 112.21 148.15, 109.73 149.26 C107.24 150.36, 104.69 151.34, 102.1 152.18 C99.52 153.02, 96.88 153.73, 94.22 154.3 C91.56 154.86, 88.86 155.29, 86.15 155.57 C83.45 155.86, 80.72 156, 78 156 C75.28 156, 72.55 155.86, 69.85 155.57 C67.14 155.29, 64.44 154.86, 61.78 154.3 C59.12 153.73, 56.48 153.02, 53.9 152.18 C51.31 151.34, 48.76 150.36, 46.27 149.26 C43.79 148.15, 41.35 146.91, 39 145.55 C36.65 144.19, 34.35 142.7, 32.15 141.1 C29.95 139.51, 27.83 137.78, 25.81 135.97 C23.79 134.15, 21.85 132.21, 20.03 130.19 C18.22 128.17, 16.49 126.05, 14.9 123.85 C13.3 121.65, 11.81 119.35, 10.45 117 C9.09 114.65, 7.85 112.21, 6.74 109.73 C5.64 107.24, 4.66 104.69, 3.82 102.1 C2.98 99.52, 2.27 96.88, 1.7 94.22 C1.14 91.56, 0.71 88.86, 0.43 86.15 C0.14 83.45, 0 80.72, 0 78 C0 75.28, 0.14 72.55, 0.43 69.85 C0.71 67.14, 1.14 64.44, 1.7 61.78 C2.27 59.12, 2.98 56.48, 3.82 53.9 C4.66 51.31, 5.64 48.76, 6.74 46.27 C7.85 43.79, 9.09 41.35, 10.45 39 C11.81 36.65, 13.3 34.35, 14.9 32.15 C16.49 29.95, 18.22 27.83, 20.03 25.81 C21.85 23.79, 23.79 21.85, 25.81 20.03 C27.83 18.22, 29.95 16.49, 32.15 14.9 C34.35 13.3, 36.65 11.81, 39 10.45 C41.35 9.09, 43.79 7.85, 46.27 6.74 C48.76 5.64, 51.31 4.66, 53.9 3.82 C56.48 2.98, 59.12 2.27, 61.78 1.7 C64.44 1.14, 67.14 0.71, 69.85 0.43 C72.55 0.14, 75.28 0, 78 0 C80.72 0, 83.45 0.14, 86.15 0.43 C88.86 0.71, 91.56 1.14, 94.22 1.7 C96.88 2.27, 99.52 2.98, 102.1 3.82 C104.69 4.66, 107.24 5.64, 109.73 6.74 C112.21 7.85, 114.65 9.09, 117 10.45 C119.35 11.81, 121.65 13.3, 123.85 14.9 C126.05 16.49, 128.17 18.22, 130.19 20.03 C132.21 21.85, 134.15 23.79, 135.97 25.81 C137.78 27.83, 139.51 29.95, 141.1 32.15 C142.7 34.35, 144.19 36.65, 145.55 39 C146.91 41.35, 148.15 43.79, 149.26 46.27 C150.36 48.76, 151.34 51.31, 152.18 53.9 C153.02 56.48, 153.73 59.12, 154.3 61.78 C154.86 64.44, 155.29 67.14, 155.57 69.85 C155.86 72.55, 155.93 76.64, 156 78 C156.07 79.36, 156.07 76.64, 156 78" stroke="#000000" stroke-width="1" fill="none"></path></g><g stroke-linecap="round" transform="translate(350.4057571124483 181.30075014794875) rotate(0 78.00000871930803 10.285737173897871)"><path d="M156 10.29 C156 10.73, 155.78 11.18, 155.33 11.63 C154.89 12.07, 154.22 12.52, 153.34 12.95 C152.46 13.38, 151.36 13.81, 150.06 14.22 C148.76 14.64, 147.25 15.04, 145.55 15.43 C143.85 15.82, 141.95 16.19, 139.88 16.55 C137.82 16.9, 135.55 17.24, 133.15 17.56 C130.75 17.88, 128.18 18.17, 125.48 18.45 C122.79 18.72, 119.94 18.97, 117 19.19 C114.06 19.42, 110.98 19.62, 107.85 19.79 C104.71 19.96, 101.47 20.11, 98.19 20.22 C94.91 20.34, 91.55 20.43, 88.18 20.48 C84.82 20.54, 81.39 20.57, 78 20.57 C74.61 20.57, 71.18 20.54, 67.82 20.48 C64.45 20.43, 61.09 20.34, 57.81 20.22 C54.53 20.11, 51.29 19.96, 48.15 19.79 C45.02 19.62, 41.94 19.42, 39 19.19 C36.06 18.97, 33.21 18.72, 30.52 18.45 C27.82 18.17, 25.25 17.88, 22.85 17.56 C20.45 17.24, 18.18 16.9, 16.12 16.55 C14.05 16.19, 12.15 15.82, 10.45 15.43 C8.75 15.04, 7.24 14.64, 5.94 14.22 C4.64 13.81, 3.54 13.38, 2.66 12.95 C1.78 12.52, 1.11 12.07, 0.67 11.63 C0.22 11.18, 0 10.73, 0 10.29 C0 9.84, 0.22 9.39, 0.67 8.94 C1.11 8.5, 1.78 8.06, 2.66 7.62 C3.54 7.19, 4.64 6.76, 5.94 6.35 C7.24 5.94, 8.75 5.53, 10.45 5.14 C12.15 4.76, 14.05 4.38, 16.12 4.02 C18.18 3.67, 20.45 3.33, 22.85 3.01 C25.25 2.7, 27.82 2.4, 30.52 2.13 C33.21 1.85, 36.06 1.6, 39 1.38 C41.94 1.15, 45.02 0.95, 48.15 0.78 C51.29 0.61, 54.53 0.47, 57.81 0.35 C61.09 0.23, 64.45 0.15, 67.82 0.09 C71.18 0.03, 74.61 0, 78 0 C81.39 0, 84.82 0.03, 88.18 0.09 C91.55 0.15, 94.91 0.23, 98.19 0.35 C101.47 0.47, 104.71 0.61, 107.85 0.78 C110.98 0.95, 114.06 1.15, 117 1.38 C119.94 1.6, 122.79 1.85, 125.48 2.13 C128.18 2.4, 130.75 2.7, 133.15 3.01 C135.55 3.33, 137.82 3.67, 139.88 4.02 C141.95 4.38, 143.85 4.76, 145.55 5.14 C147.25 5.53, 148.76 5.94, 150.06 6.35 C151.36 6.76, 152.46 7.19, 153.34 7.62 C154.22 8.06, 154.89 8.5, 155.33 8.94 C155.78 9.39, 155.89 10.06, 156 10.29 C156.11 10.51, 156.11 10.06, 156 10.29" stroke="none" stroke-width="0" fill="#ff98f6"></path><path d="M156 10.29 C156 10.73, 155.78 11.18, 155.33 11.63 C154.89 12.07, 154.22 12.52, 153.34 12.95 C152.46 13.38, 151.36 13.81, 150.06 14.22 C148.76 14.64, 147.25 15.04, 145.55 15.43 C143.85 15.82, 141.95 16.19, 139.88 16.55 C137.82 16.9, 135.55 17.24, 133.15 17.56 C130.75 17.88, 128.18 18.17, 125.48 18.45 C122.79 18.72, 119.94 18.97, 117 19.19 C114.06 19.42, 110.98 19.62, 107.85 19.79 C104.71 19.96, 101.47 20.11, 98.19 20.22 C94.91 20.34, 91.55 20.43, 88.18 20.48 C84.82 20.54, 81.39 20.57, 78 20.57 C74.61 20.57, 71.18 20.54, 67.82 20.48 C64.45 20.43, 61.09 20.34, 57.81 20.22 C54.53 20.11, 51.29 19.96, 48.15 19.79 C45.02 19.62, 41.94 19.42, 39 19.19 C36.06 18.97, 33.21 18.72, 30.52 18.45 C27.82 18.17, 25.25 17.88, 22.85 17.56 C20.45 17.24, 18.18 16.9, 16.12 16.55 C14.05 16.19, 12.15 15.82, 10.45 15.43 C8.75 15.04, 7.24 14.64, 5.94 14.22 C4.64 13.81, 3.54 13.38, 2.66 12.95 C1.78 12.52, 1.11 12.07, 0.67 11.63 C0.22 11.18, 0 10.73, 0 10.29 C0 9.84, 0.22 9.39, 0.67 8.94 C1.11 8.5, 1.78 8.06, 2.66 7.62 C3.54 7.19, 4.64 6.76, 5.94 6.35 C7.24 5.94, 8.75 5.53, 10.45 5.14 C12.15 4.76, 14.05 4.38, 16.12 4.02 C18.18 3.67, 20.45 3.33, 22.85 3.01 C25.25 2.7, 27.82 2.4, 30.52 2.13 C33.21 1.85, 36.06 1.6, 39 1.38 C41.94 1.15, 45.02 0.95, 48.15 0.78 C51.29 0.61, 54.53 0.47, 57.81 0.35 C61.09 0.23, 64.45 0.15, 67.82 0.09 C71.18 0.03, 74.61 0, 78 0 C81.39 0, 84.82 0.03, 88.18 0.09 C91.55 0.15, 94.91 0.23, 98.19 0.35 C101.47 0.47, 104.71 0.61, 107.85 0.78 C110.98 0.95, 114.06 1.15, 117 1.38 C119.94 1.6, 122.79 1.85, 125.48 2.13 C128.18 2.4, 130.75 2.7, 133.15 3.01 C135.55 3.33, 137.82 3.67, 139.88 4.02 C141.95 4.38, 143.85 4.76, 145.55 5.14 C147.25 5.53, 148.76 5.94, 150.06 6.35 C151.36 6.76, 152.46 7.19, 153.34 7.62 C154.22 8.06, 154.89 8.5, 155.33 8.94 C155.78 9.39, 155.89 10.06, 156 10.29 C156.11 10.51, 156.11 10.06, 156 10.29" stroke="#000000" stroke-width="1.5" fill="none" stroke-dasharray="8 9"></path></g><g stroke-linecap="round"><g transform="translate(10.805668175506298 49.18646290778406) rotate(0 178.448336523958 43.82106611786037)"><path d="M0.47 1.12 C60.19 15.61, 297.85 73.35, 357.42 87.91 M-0.75 0.67 C58.94 15.29, 297.01 71.62, 356.75 85.93" stroke="#1e1e1e" stroke-width="2" fill="none"></path></g><g transform="translate(10.805668175506298 49.18646290778406) rotate(0 178.448336523958 43.82106611786037)"><path d="M331.91 88.8 C339.31 88.94, 343.42 89.1, 356.75 85.93 M331.91 88.8 C340.87 87.59, 350.67 85.62, 356.75 85.93" stroke="#1e1e1e" stroke-width="2" fill="none"></path></g><g transform="translate(10.805668175506298 49.18646290778406) rotate(0 178.448336523958 43.82106611786037)"><path d="M335.87 72.17 C342.52 76.03, 345.76 79.91, 356.75 85.93 M335.87 72.17 C343.53 77.08, 351.88 81.22, 356.75 85.93" stroke="#1e1e1e" stroke-width="2" fill="none"></path></g></g><mask></mask><g stroke-linecap="round"><g transform="translate(12.096482563452128 49.572688147151666) rotate(0 51.89851134496655 7.872240229315054)"><path d="M0.52 0.27 C17.91 2.84, 87.41 13.84, 104.8 16.55 M-0.66 -0.64 C16.62 2.11, 86.82 12.31, 104.39 14.85" stroke="#1e1e1e" stroke-width="2" fill="none"></path></g></g><mask></mask><g stroke-linecap="round"><g transform="translate(227.6192006109618 10.415984879003418) rotate(0 -108.92759871027886 18.509116351817994)"><path d="M1.01 0.8 C-35.2 7.06, -180.23 31.76, -216.73 37.8 M0.08 0.18 C-36.24 6.07, -180.61 29.72, -217.09 36.08" stroke="#1e1e1e" stroke-width="2" fill="none"></path></g></g><mask></mask><g stroke-linecap="round"><g transform="translate(120.55855297786525 204.68483540363582) rotate(0 53.10822561152901 -37.81627276142811)"><path d="M1.12 0.78 C18.63 -11.96, 88.44 -62.71, 106.06 -75.63 M0.25 0.14 C17.5 -12.46, 87.33 -61.41, 105.04 -74.09" stroke="#1e1e1e" stroke-width="2" fill="none"></path></g></g><mask></mask><g stroke-linecap="round"><g transform="translate(116.47666958583955 65.90031069364) rotate(0 55.68874583697692 -27.40706640293621)"><path d="M-0.15 0 C18.34 -9.44, 93.54 -46.74, 112.05 -55.9 M-1.69 -1.04 C16.6 -10.45, 92.86 -46.16, 111.45 -54.93" stroke="#1e1e1e" stroke-width="2" fill="none"></path></g></g><mask></mask><g stroke-linecap="round"><g transform="translate(10.434212301904381 50.15580799041345) rotate(0 54.18742383929907 76.97302051876846)"><path d="M0.67 -1.09 C18.68 24.55, 90.1 127.77, 107.88 153.81 M-0.43 0.96 C17.38 26.79, 88.31 129.87, 106.68 155.28" stroke="#1e1e1e" stroke-width="2" fill="none"></path></g></g><mask></mask><g stroke-linecap="round"><g transform="translate(12.183609680298332 50.91300743089073) rotate(0 107.54373811271267 39.56574351419465)"><path d="M-0.49 -0.13 C35.08 13.43, 178.35 66.96, 214.11 80.33 M1.45 -1.25 C37.33 12.11, 180.48 65.59, 216.3 78.83" stroke="#1e1e1e" stroke-width="2" fill="none"></path></g></g><mask></mask><g stroke-linecap="round"><g transform="translate(115.79969997418152 65.07411913204328) rotate(0 2.3325016176439135 69.10076916715539)"><path d="M-0.98 1.19 C-0.3 24.4, 2.53 116.21, 3.61 139.1 M0.7 0.77 C1.79 23.67, 5.02 114.25, 5.77 137.45" stroke="#1e1e1e" stroke-width="2" fill="none"></path></g></g><mask></mask><g stroke-linecap="round"><g transform="translate(227.05064423641352 130.3660078673944) rotate(0 0.9181765895276044 -59.1875761195293)"><path d="M-1.05 0.9 C-0.45 -18.98, 2.06 -98.28, 2.67 -118.07 M0.59 0.32 C1.2 -19.43, 1.89 -100, 2.16 -120.03" stroke="#1e1e1e" stroke-width="2" fill="none"></path></g></g><mask></mask></svg>
